<svg width="120" height="1020" viewBox="0 0 120 1020" fill="none" xmlns="http://www.w3.org/2000/svg">
<path d="M36.7428 75.8926C33.9514 75.8926 31.6885 78.1227 31.6885 80.8736C31.6885 83.6244 33.9514 85.8547 36.7428 85.8547C39.5343 85.8547 41.7971 83.6244 41.7971 80.8736C41.7971 78.1227 39.5343 75.8926 36.7428 75.8926ZM36.7428 83.9508C35.1007 83.9508 33.7693 82.573 33.7693 80.8736C33.7693 79.1741 35.1007 77.7965 36.7428 77.7965C38.385 77.7965 39.7161 79.1741 39.7161 80.8736C39.7161 82.573 38.385 83.9508 36.7428 83.9508ZM64.4021 85.5511H66.4112V76.1962H64.4021V85.5511ZM88.1165 78.0204V76.1962H80.392V85.5511H88.1165V83.7267H82.4013V81.6133H87.8392V79.8814H82.4013V78.0204H88.1165ZM75.6732 82.23L71.0162 76.196H69.1315V85.5509H71.0232V79.3133L76.0023 85.5511H77.6592V76.1962H75.673L75.6732 82.23ZM50.6102 82.23L45.9532 76.196H44.0685V85.5509H45.9602V79.3133L50.9394 85.5511H52.5963V76.1962H50.6102V82.23ZM55.3167 76.1962V85.5511H62.4525V83.7267H57.326V76.1962H55.3167Z" fill="white"/>
<path d="M47.6971 44.7012C47.6971 45.1417 47.7838 45.5777 47.9524 45.9846C48.1209 46.3915 48.368 46.7612 48.6794 47.0726C48.9908 47.384 49.3605 47.631 49.7674 47.7995C50.1743 47.968 50.6104 48.0546 51.0508 48.0546C51.9402 48.0546 52.7931 47.7013 53.422 47.0724C54.0509 46.4435 54.4042 45.5906 54.4042 44.7012C54.4042 44.2609 54.3174 43.8248 54.1489 43.4179C53.9804 43.011 53.7334 42.6413 53.422 42.3299C53.1105 42.0185 52.7409 41.7715 52.334 41.603C51.9271 41.4344 51.491 41.3477 51.0506 41.3477C50.6102 41.3477 50.1742 41.4344 49.7673 41.603C49.3604 41.7715 48.9907 42.0185 48.6793 42.3299C48.3679 42.6413 48.1209 43.011 47.9523 43.4179C47.7838 43.8248 47.6971 44.2609 47.6971 44.7012ZM68.668 34H63.1494C63.1189 33.9999 63.0887 34.0059 63.0604 34.0176C63.0322 34.0292 63.0066 34.0463 62.985 34.0679C62.9634 34.0895 62.9463 34.1152 62.9346 34.1434C62.923 34.1716 62.917 34.2019 62.9171 34.2324V69.409C62.9171 69.5532 63.0337 69.6711 63.1783 69.6711H68.668C73.7192 69.6711 77.8142 65.5761 77.8142 60.5245V43.1462C77.8142 38.095 73.7192 34 68.668 34ZM69.974 57.2257C69.5004 57.2257 69.0314 57.1324 68.5939 56.9512C68.1563 56.7699 67.7588 56.5042 67.4239 56.1693C67.089 55.8344 66.8234 55.4368 66.6422 54.9992C66.461 54.5616 66.3677 54.0926 66.3678 53.619C66.3783 52.6694 66.7628 51.7622 67.438 51.0944C68.1132 50.4266 69.0246 50.052 69.9743 50.052C70.9239 50.052 71.8353 50.4266 72.5105 51.0944C73.1857 51.7622 73.5703 52.6694 73.5807 53.619C73.5807 54.5756 73.2007 55.493 72.5244 56.1693C71.848 56.8457 70.9306 57.2257 69.974 57.2257ZM59.0863 34H51.2898C46.2386 34 42.1436 38.095 42.1436 43.1462V60.524C42.1436 65.5756 46.2386 69.6707 51.2898 69.6707H59.0863C59.1558 69.6707 59.2225 69.6431 59.2716 69.5939C59.3208 69.5448 59.3484 69.4781 59.3484 69.4086V34.2612C59.3484 34.2268 59.3416 34.1928 59.3284 34.161C59.3152 34.1293 59.2959 34.1005 59.2716 34.0762C59.2472 34.0519 59.2183 34.0327 59.1865 34.0196C59.1547 34.0066 59.1207 33.9999 59.0863 34ZM56.4725 66.7956H51.2898C49.6146 66.7956 48.04 66.1435 46.8558 64.9593C46.2716 64.3783 45.8084 63.6872 45.4932 62.9259C45.178 62.1646 45.017 61.3484 45.0195 60.5245V43.1462C45.0195 41.4706 45.6712 39.896 46.8554 38.7127C47.4363 38.1285 48.1274 37.6653 48.8885 37.35C49.6497 37.0347 50.4659 36.8736 51.2898 36.8759H56.4725V66.7956Z" fill="white"/>
<path d="M76.8077 137H42C39.2386 137 37 139.239 37 142V178C37 180.761 39.2386 183 42 183H78C80.7614 183 83 180.761 83 178V142C83 139.239 80.7614 137 78 137H77.25" stroke="#F3822C" stroke-width="5" stroke-linecap="round"/>
<path d="M60.8719 172.383C59.1488 172.383 57.5427 172.107 56.0536 171.554C54.5858 170.979 53.3094 170.171 52.2245 169.129C51.1396 168.086 50.2887 166.863 49.6718 165.459C49.0761 164.055 48.7783 162.513 48.7783 160.832C48.7783 159.152 49.0761 157.61 49.6718 156.206C50.2887 154.802 51.1396 153.578 52.2245 152.536C53.3307 151.494 54.6177 150.696 56.0855 150.143C57.5533 149.568 59.1594 149.281 60.9038 149.281C62.8396 149.281 64.584 149.622 66.1369 150.302C67.711 150.962 69.03 151.94 70.0936 153.238L66.775 156.301C66.0092 155.429 65.1583 154.78 64.2223 154.355C63.2863 153.908 62.2652 153.685 61.159 153.685C60.1167 153.685 59.1594 153.855 58.2872 154.195C57.415 154.536 56.6599 155.025 56.0217 155.663C55.3835 156.301 54.8836 157.056 54.522 157.929C54.1816 158.801 54.0114 159.769 54.0114 160.832C54.0114 161.896 54.1816 162.864 54.522 163.736C54.8836 164.608 55.3835 165.363 56.0217 166.002C56.6599 166.64 57.415 167.129 58.2872 167.469C59.1594 167.81 60.1167 167.98 61.159 167.98C62.2652 167.98 63.2863 167.767 64.2223 167.342C65.1583 166.895 66.0092 166.225 66.775 165.332L70.0936 168.395C69.03 169.692 67.711 170.682 66.1369 171.362C64.584 172.043 62.829 172.383 60.8719 172.383Z" fill="#F3822C"/>
<path d="M50.8398 239.5H78C79.3807 239.5 80.5 240.619 80.5 242V278C80.5 279.381 79.3807 280.5 78 280.5H46.1016C47.5331 279.09 48.3398 277.165 48.3398 275.156V242C48.3398 240.619 49.4591 239.5 50.8398 239.5Z" stroke="#2BAB23" stroke-width="5"/>
<path d="M38 256.5H46C47.3807 256.5 48.5 257.619 48.5 259V274C48.5 277.59 45.5899 280.5 42 280.5C38.4101 280.5 35.5 277.59 35.5 274V259C35.5 257.619 36.6193 256.5 38 256.5Z" stroke="#2BAB23" stroke-width="5"/>
<path d="M57 251H72" stroke="#2BAB23" stroke-width="5" stroke-linecap="round"/>
<path d="M57 260H72" stroke="#2BAB23" stroke-width="5" stroke-linecap="round"/>
<path d="M57 269H72" stroke="#2BAB23" stroke-width="5" stroke-linecap="round"/>
<path d="M80 346H42.5661C39.9801 346 37.8207 347.972 37.5866 350.547L35.4957 373.547C35.2295 376.475 37.535 379 40.4752 379H81.5248C84.465 379 86.7705 376.475 86.5043 373.547L84.3169 349.486C84.1374 347.512 82.4822 346 80.5 346" stroke="#F11615" stroke-width="5" stroke-linecap="round"/>
<path d="M71 354V339C71 336.239 68.7614 334 66 334H56C53.2386 334 51 336.239 51 339V354" stroke="#F11615" stroke-width="5" stroke-linecap="round"/>
<path d="M80 442H40C37.2386 442 35 444.239 35 447V474C35 476.761 37.2386 479 40 479H82C84.7614 479 87 476.761 87 474V447C87 444.239 84.7614 442 82 442H80.5" stroke="#215FE5" stroke-width="5" stroke-linecap="round"/>
<path d="M47 477V460C47 456.134 50.134 453 54 453C57.866 453 61 456.134 61 460V469.5C61 465.358 64.3579 462 68.5 462C72.6421 462 76 465.358 76 469.5V477" stroke="#215FE5" stroke-width="5" stroke-linejoin="round"/>
<path d="M41.5 545H40C37.2386 545 35 547.239 35 550V574C35 576.761 37.2386 579 40 579H82C84.7614 579 87 576.761 87 574V550C87 547.239 84.7614 545 82 545H80.5" stroke="#2CADBF" stroke-width="5" stroke-linecap="round"/>
<path d="M52 537C59.1033 539.475 63.0509 539.388 70 537" stroke="#2CADBF" stroke-width="5" stroke-linecap="round"/>
<path d="M49 545C58.4711 547.714 63.7346 547.619 73 545" stroke="#2CADBF" stroke-width="5" stroke-linecap="round"/>
<path d="M46 553C57.8389 555.714 64.4182 555.619 76 553" stroke="#2CADBF" stroke-width="5" stroke-linecap="round"/>
<path d="M73.2196 632.414C74.0006 631.633 75.267 631.633 76.048 632.414L81.7049 638.071C87.9532 644.319 87.9532 654.45 81.7049 660.698L59.1988 683.205C52.9504 689.453 42.8197 689.453 36.5713 683.205L30.9145 677.548C30.1334 676.767 30.1334 675.5 30.9145 674.719L73.2196 632.414Z" stroke="#929292" stroke-width="5"/>
<circle cx="54.1279" cy="669.891" r="5.29036" transform="rotate(45 54.1279 669.891)" fill="#929292"/>
<circle cx="73.2188" cy="650.798" r="3" transform="rotate(45 73.2188 650.798)" fill="#929292"/>
<circle cx="73.2188" cy="659.284" r="3" transform="rotate(45 73.2188 659.284)" fill="#929292"/>
<circle cx="64.7344" cy="659.284" r="3" transform="rotate(45 64.7344 659.284)" fill="#929292"/>
<circle cx="64.7344" cy="650.798" r="3" transform="rotate(45 64.7344 650.798)" fill="#929292"/>
<mask id="path-25-inside-1_42_51" fill="white">
<rect x="39" y="734" width="42" height="52" rx="4"/>
</mask>
<rect x="39" y="734" width="42" height="52" rx="4" stroke="#929292" stroke-width="10" stroke-miterlimit="3.99393" mask="url(#path-25-inside-1_42_51)"/>
<path d="M60 777L68.6603 769.5H51.3397L60 777Z" fill="#929292"/>
<circle cx="60" cy="860" r="15.5" stroke="#929292" stroke-width="5"/>
<path d="M60 842L60 836" stroke="#929292" stroke-width="5" stroke-linecap="round"/>
<path d="M78 860H84" stroke="#929292" stroke-width="5" stroke-linecap="round"/>
<path d="M47.2725 872.728L43.0298 876.97" stroke="#929292" stroke-width="5" stroke-linecap="round"/>
<path d="M72.7275 872.728L76.9702 876.97" stroke="#929292" stroke-width="5" stroke-linecap="round"/>
<path d="M60 884L60 878" stroke="#929292" stroke-width="5" stroke-linecap="round"/>
<path d="M36 860H42" stroke="#929292" stroke-width="5" stroke-linecap="round"/>
<path d="M76.9707 843.029L72.7281 847.272" stroke="#929292" stroke-width="5" stroke-linecap="round"/>
<path d="M43.0293 843.029L47.2719 847.272" stroke="#929292" stroke-width="5" stroke-linecap="round"/>
<mask id="path-36-inside-2_42_51" fill="white">
<path d="M65.5905 941.136C65.9336 939.856 67.2555 939.085 68.4951 939.554C73.1524 941.316 77.1668 944.493 79.9553 948.666C83.1901 953.508 84.5547 959.36 83.7947 965.133C83.0347 970.905 80.202 976.205 75.8243 980.044C71.4466 983.883 65.8226 986 60 986C54.1774 986 48.5534 983.883 44.1757 980.044C39.798 976.205 36.9653 970.905 36.2053 965.133C35.4453 959.36 36.8099 953.508 40.0447 948.666C42.8332 944.493 46.8476 941.316 51.5049 939.554C52.7445 939.085 54.0664 939.856 54.4095 941.136C54.7526 942.416 53.9847 943.718 52.7571 944.218C49.2215 945.659 46.1769 948.129 44.0358 951.333C41.4479 955.206 40.3563 959.888 40.9643 964.506C41.5723 969.124 43.8384 973.364 47.3406 976.435C50.8427 979.507 55.3419 981.2 60 981.2C64.6581 981.2 69.1573 979.507 72.6594 976.435C76.1616 973.364 78.4277 969.124 79.0357 964.506C79.6437 959.888 78.5521 955.206 75.9642 951.333C73.8231 948.129 70.7785 945.659 67.2429 944.218C66.0153 943.718 65.2474 942.416 65.5905 941.136Z"/>
</mask>
<path d="M65.5905 941.136C65.9336 939.856 67.2555 939.085 68.4951 939.554C73.1524 941.316 77.1668 944.493 79.9553 948.666C83.1901 953.508 84.5547 959.36 83.7947 965.133C83.0347 970.905 80.202 976.205 75.8243 980.044C71.4466 983.883 65.8226 986 60 986C54.1774 986 48.5534 983.883 44.1757 980.044C39.798 976.205 36.9653 970.905 36.2053 965.133C35.4453 959.36 36.8099 953.508 40.0447 948.666C42.8332 944.493 46.8476 941.316 51.5049 939.554C52.7445 939.085 54.0664 939.856 54.4095 941.136C54.7526 942.416 53.9847 943.718 52.7571 944.218C49.2215 945.659 46.1769 948.129 44.0358 951.333C41.4479 955.206 40.3563 959.888 40.9643 964.506C41.5723 969.124 43.8384 973.364 47.3406 976.435C50.8427 979.507 55.3419 981.2 60 981.2C64.6581 981.2 69.1573 979.507 72.6594 976.435C76.1616 973.364 78.4277 969.124 79.0357 964.506C79.6437 959.888 78.5521 955.206 75.9642 951.333C73.8231 948.129 70.7785 945.659 67.2429 944.218C66.0153 943.718 65.2474 942.416 65.5905 941.136Z" stroke="#929292" stroke-width="10" mask="url(#path-36-inside-2_42_51)"/>
<path d="M60 956L60 936" stroke="#929292" stroke-width="5" stroke-linecap="round"/>
</svg>
